<mxfile host="app.diagrams.net" modified="2020-07-20T08:44:39.370Z" agent="5.0 (Macintosh; Intel Mac OS X 10_14_6) AppleWebKit/537.36 (KHTML, like Gecko) Chrome/84.0.4147.89 Safari/537.36" etag="8MixWv2d6eFrl-WDnfVr" version="13.4.8" type="github">
  <diagram id="7WkYTsBZQpn_qp8Of13j" name="Page-1">
    <mxGraphModel dx="946" dy="449" grid="1" gridSize="10" guides="1" tooltips="1" connect="1" arrows="1" fold="1" page="1" pageScale="1" pageWidth="827" pageHeight="1169" math="0" shadow="0">
      <root>
        <mxCell id="0" />
        <mxCell id="1" parent="0" />
      </root>
    </mxGraphModel>
  </diagram>
</mxfile>
